<svg width="72" height="24" viewBox="0 0 72 24" fill="none" xmlns="http://www.w3.org/2000/svg">
<g clip-path="url(#clip0_1_10833)">
<path fill-rule="evenodd" clip-rule="evenodd" d="M69.8897 14.024V13.684H66.1758C64.1997 13.684 62.9118 14.623 62.9118 16.16C62.9118 17.516 63.9897 18.376 65.6748 18.376C68.3358 18.376 69.8897 16.726 69.8897 14.024ZM71.9958 11.468V19.941H69.8897V17.671C69.1777 19.184 67.4137 20.148 65.3587 20.148C62.5687 20.148 60.7508 18.587 60.7508 16.188C60.7508 13.684 62.8308 12.091 66.0448 12.091H69.0448C69.6308 12.091 69.8897 11.804 69.8897 11.386C69.8897 9.588 68.5997 8.362 66.3337 8.362C64.3837 8.362 62.8587 9.562 62.7537 10.996H60.7508C60.9888 8.46 63.4108 6.591 66.3857 6.591C69.8368 6.595 71.9958 8.548 71.9958 11.468ZM55.8558 13.37C55.8558 10.4 54.1167 8.472 51.4567 8.472C48.7967 8.472 47.0327 10.399 47.0327 13.37C47.0327 16.341 48.7877 18.273 51.4567 18.273C54.1267 18.273 55.8558 16.335 55.8558 13.37ZM44.8748 13.37C44.8748 9.539 47.1388 6.595 51.2718 6.595C53.1438 6.595 54.8818 7.533 55.6707 8.935V0H57.7788V19.94H55.6707V17.777C54.8907 19.211 53.1358 20.147 51.2718 20.147C47.1388 20.147 44.8748 17.202 44.8748 13.37ZM40.1038 14.024V13.684H36.3988C34.4238 13.684 33.1328 14.623 33.1328 16.16C33.1328 17.516 34.2127 18.376 35.8997 18.376C38.5437 18.376 40.1038 16.726 40.1038 14.024ZM42.2108 11.468V19.941H40.1058V17.671C39.3958 19.184 37.6308 20.148 35.5758 20.148C32.7858 20.148 30.9688 18.587 30.9688 16.188C30.9688 13.684 33.0488 12.091 36.2598 12.091H39.2627C39.8477 12.091 40.1058 11.804 40.1058 11.386C40.1058 9.588 38.8158 8.362 36.5508 8.362C34.6008 8.362 33.0738 9.562 32.9688 10.996H30.9688C31.2048 8.46 33.6288 6.591 36.6038 6.591C40.0528 6.595 42.2137 8.548 42.2137 11.468H42.2108Z" fill="white"/>
<path d="M6.048 20.2248C5.87836 20.2449 5.72053 20.3218 5.60029 20.4431C5.48005 20.5645 5.40451 20.723 5.386 20.8928C5.386 20.9028 5.386 20.9148 5.384 20.9258V20.9158C5.38217 20.9358 5.38117 20.9558 5.381 20.9758V23.2448C5.381 23.344 5.36144 23.4423 5.32343 23.534C5.28543 23.6256 5.22973 23.7089 5.15951 23.779C5.0893 23.8492 5.00595 23.9047 4.91423 23.9426C4.82252 23.9805 4.72423 23.9999 4.625 23.9998H0.757001C0.632205 24.0001 0.509297 23.9693 0.399329 23.9104C0.28936 23.8514 0.195779 23.7659 0.127001 23.6618C0.0446967 23.5383 0.000532018 23.3933 9.13901e-07 23.2448V11.6998C-0.000684242 9.96762 0.383888 8.25695 1.12586 6.69171C1.86784 5.12647 2.94864 3.74584 4.29 2.64981L4.292 2.64681L4.436 2.53081L4.444 2.52481C4.54 2.44781 4.638 2.37281 4.737 2.30081L4.763 2.28081L4.895 2.18581L4.91 2.17581C4.958 2.13981 5.008 2.10581 5.057 2.07181L5.084 2.05381L5.205 1.96981L5.241 1.94581C5.364 1.86381 5.489 1.78581 5.615 1.70781L5.62 1.70481C5.695 1.65881 5.77 1.61381 5.848 1.56881L5.854 1.56581C5.932 1.52081 6.01 1.47681 6.088 1.43481L6.091 1.43281C7.13546 0.861292 8.26164 0.45386 9.43 0.224812H9.435L9.562 0.199813L9.577 0.196812L9.695 0.176812L9.719 0.171813L9.831 0.153812L9.863 0.148813L9.968 0.132812L10.007 0.126813L10.107 0.112812L10.15 0.106812L10.246 0.0948125L10.296 0.0888125L10.386 0.0788125L10.441 0.0728125L10.527 0.0638125L10.586 0.0578125L10.67 0.0508125L10.733 0.0458125L10.813 0.0388125L10.88 0.0348125L10.958 0.0298125L11.029 0.0248125L11.103 0.0218125C11.1283 0.0201957 11.1537 0.0188623 11.179 0.0178125L11.249 0.0148125L11.333 0.0118125L11.395 0.0108125L11.491 0.0078125H11.691C18.149 0.0078125 23.378 5.24281 23.381 11.7018V23.2438C23.3807 23.4441 23.301 23.6362 23.1592 23.7777C23.0175 23.9193 22.8253 23.9988 22.625 23.9988H18.757C18.6577 23.9989 18.5594 23.9795 18.4676 23.9416C18.3758 23.9038 18.2924 23.8482 18.2221 23.7781C18.1518 23.708 18.096 23.6247 18.0579 23.533C18.0198 23.4414 18.0001 23.3431 18 23.2438V20.9738C17.9995 20.7736 17.9196 20.5817 17.7779 20.4402C17.6362 20.2987 17.4442 20.2191 17.244 20.2188H11.691L6.048 20.2248ZM18 11.2198C18.015 10.3819 17.8629 9.5493 17.5526 8.77076C17.2423 7.99223 16.78 7.28331 16.1927 6.68539C15.6055 6.08747 14.905 5.61253 14.1321 5.2883C13.3593 4.96407 12.5296 4.79705 11.6915 4.79698C10.8534 4.79691 10.0237 4.9638 9.25082 5.28791C8.47793 5.61202 7.77735 6.08685 7.18998 6.68467C6.6026 7.2825 6.14021 7.99135 5.82979 8.76984C5.51937 9.54832 5.36715 10.3808 5.382 11.2188C5.41145 12.8726 6.08909 14.4487 7.26905 15.6079C8.44901 16.767 10.0369 17.4165 11.691 17.4165C13.3451 17.4165 14.933 16.767 16.1129 15.6079C17.2929 14.4487 17.9706 12.8726 18 11.2188V11.2198Z" fill="white"/>
</g>
<defs>
<clipPath id="clip0_1_10833">
<rect width="72" height="24" fill="white"/>
</clipPath>
</defs>
</svg>
