<svg width="161" height="36" viewBox="0 0 161 36" fill="none" xmlns="http://www.w3.org/2000/svg">
<g clip-path="url(#clip0_7044_98578)">
<g clip-path="url(#clip1_7044_98578)">
<mask id="mask0_7044_98578" style="mask-type:luminance" maskUnits="userSpaceOnUse" x="0" y="0" width="160" height="36">
<path d="M159.931 0.345304H0.34375V35.3112H159.931V0.345304Z" fill="white"/>
</mask>
<g mask="url(#mask0_7044_98578)">
<path d="M114.512 16.8221L115.573 9.73315C113.258 8.48782 110.028 7.43405 106.316 7.43405C98.9867 7.43405 94.9857 11.2659 94.9857 16.1995C94.9857 21.4204 99.7586 22.9531 103.038 24.0548C105.014 24.7733 106.557 25.3001 106.557 26.3539C106.557 27.2161 105.545 28.0303 103.519 28.0303C100.579 28.0303 96.4797 26.3539 93.8284 24.0069L92.6719 31.7664C95.4193 33.7782 99.3731 34.9757 103.567 34.9757C110.847 34.9757 114.994 31.4312 114.994 26.4019C114.994 21.133 110.511 19.3607 106.894 18.0675C104.869 17.349 103.423 16.9179 103.423 15.9121C103.423 15.05 104.435 14.3793 106.509 14.3793C109.498 14.3793 112.583 15.7684 114.512 16.8221Z" fill="#FF0000"/>
<path d="M21.6529 8.15256L21.1708 10.4517C19.7725 7.72147 15.6262 7.43408 13.4083 7.43408C6.46556 7.43408 0.390625 14.044 0.390625 23.0969C0.390625 30.3775 4.82629 34.9757 10.3708 34.9757C13.4566 34.9757 16.1083 34.2573 18.278 31.7186L17.6994 34.2573H18.9529H26.4261L30.4278 8.10466H21.6529V8.15256ZM14.3727 26.2581C11.3834 26.2581 9.1173 23.9591 9.1173 21.0373C9.1173 18.1634 11.4316 15.8164 14.3727 15.8164C17.2655 15.8164 19.5797 18.1634 19.5797 21.0373C19.5797 23.9591 17.2655 26.2581 14.3727 26.2581Z" fill="#FF0000"/>
<path d="M86.0221 8.15256H85.106L84.6239 10.4517C83.2257 7.72147 79.0793 7.43408 76.8614 7.43408C69.9187 7.43408 63.8438 14.044 63.8438 23.0969C63.8438 30.3775 68.2794 34.9757 73.8241 34.9757C76.9097 34.9757 79.5614 34.2573 81.7311 31.7186L81.1525 34.2573H82.4061H89.8789L93.8807 8.10466H86.0221V8.15256ZM77.8257 26.2581C74.8365 26.2581 72.5704 23.9591 72.5704 21.0373C72.5704 18.1634 74.8847 15.8164 77.8257 15.8164C80.7185 15.8164 83.0328 18.1634 83.0328 21.0373C83.0811 23.9591 80.7185 26.2581 77.8257 26.2581Z" fill="#FF0000"/>
<path d="M151.78 8.15253H150.863L150.381 10.4517C148.983 7.72144 144.837 7.43405 142.618 7.43405C135.676 7.43405 129.602 14.044 129.602 23.0968C129.602 30.3774 134.037 34.9757 139.581 34.9757C142.667 34.9757 145.32 34.2572 147.489 31.7185L146.91 34.2572H148.163H155.637L159.638 8.10463H151.78V8.15253ZM143.584 26.2581C140.594 26.2581 138.328 23.9591 138.328 21.0373C138.328 18.1633 140.642 15.8163 143.584 15.8163C146.476 15.8163 148.791 18.1633 148.791 21.0373C148.791 23.9591 146.476 26.2581 143.584 26.2581Z" fill="#FF0000"/>
<path d="M38.864 9.11105C41.2871 9.11105 43.2515 7.15957 43.2515 4.7523C43.2515 2.34503 41.2871 0.393536 38.864 0.393536C36.4409 0.393536 34.4766 2.34503 34.4766 4.7523C34.4766 7.15957 36.4409 9.11105 38.864 9.11105Z" fill="#FF0000"/>
<path d="M38.8165 10.7873C36.9361 10.7873 35.2487 9.92501 34.1397 8.6318L30.2344 34.2575H39.0093L42.8182 9.35026C41.7093 10.2603 40.3593 10.7873 38.8165 10.7873Z" fill="#FF0000"/>
<path d="M59.3562 16.7747C61.7794 16.7747 63.7436 14.8232 63.7436 12.416C63.7436 10.0087 61.7794 8.05726 59.3562 8.05726C56.933 8.05726 54.9688 10.0087 54.9688 12.416C54.9688 14.8232 56.933 16.7747 59.3562 16.7747Z" fill="#FF0000"/>
<path d="M53.2358 12.4159C53.2358 10.7394 53.9109 9.20668 55.0199 8.10506H46.7753L42.7734 34.2575H51.5485L54.3449 15.8646C53.6216 14.9066 53.2358 13.7092 53.2358 12.4159Z" fill="#FF0000"/>
<path d="M125.021 9.0628C127.444 9.0628 129.407 7.11134 129.407 4.70406C129.407 2.29678 127.444 0.345304 125.021 0.345304C122.597 0.345304 120.633 2.29678 120.633 4.70406C120.633 7.11134 122.597 9.0628 125.021 9.0628Z" fill="#FF0000"/>
<path d="M125.026 10.7871C123.097 10.7871 121.361 9.87698 120.204 8.48792L116.25 34.2573H125.026L128.834 9.44585C127.773 10.3081 126.471 10.7871 125.026 10.7871Z" fill="#FF0000"/>
</g>
</g>
</g>
<defs>
<clipPath id="clip0_7044_98578">
<rect width="160" height="35.84" fill="white" transform="translate(0.328125)"/>
</clipPath>
<clipPath id="clip1_7044_98578">
<rect width="159.969" height="35.84" fill="white" transform="translate(0.34375)"/>
</clipPath>
</defs>
</svg>
