<svg width="933" height="890" viewBox="0 0 933 890" fill="none" xmlns="http://www.w3.org/2000/svg">
<path opacity="0.2" d="M434.285 181.599L434.537 183.655M434.285 181.599C444.986 180.33 455.754 179.694 466.532 179.696C606.418 179.696 719.985 285.281 719.985 415.777C719.985 546.284 606.418 651.858 466.51 651.858C326.691 651.858 213.202 546.284 213.201 415.79C213.163 381.898 220.973 348.4 236.095 317.584C251.217 286.769 273.291 259.364 300.806 237.233C302.341 235.999 303.888 234.78 305.448 233.577L305.451 233.575C334.005 211.597 367.393 195.742 403.245 187.129C409.351 185.665 415.509 184.416 421.707 183.386C425.884 182.693 430.079 182.098 434.285 181.599ZM241.51 747.761L241.627 747.749H241.745L466.53 747.54H687.754C696.255 747.54 704.429 750.681 710.48 756.305C716.534 761.931 719.966 769.59 719.985 777.608V861.815C720.005 868.662 722.937 875.247 728.18 880.118C733.427 884.994 740.557 887.749 748.014 887.749H902.091C905.781 887.756 909.435 887.086 912.842 885.778C916.214 884.49 919.302 882.574 921.936 880.137C924.506 877.758 926.563 874.896 927.985 871.72C929.379 868.6 930.101 865.229 930.103 861.821V433.739C929.991 195.429 722.756 2.10822 466.532 2.10822H458.621L454.83 2.20144H454.829L452.349 2.26359H452.336L449.03 2.36614H449.009L446.248 2.48008H446.225C445.227 2.51116 444.229 2.55259 443.243 2.60335H443.238L440.299 2.74836H440.293L439.385 2.79912C438.77 2.83434 438.147 2.86956 437.45 2.90374C436.781 2.93792 436.129 2.97935 435.46 3.02182C435.108 3.04461 434.751 3.0674 434.383 3.08915H434.377L431.746 3.26421H431.729L428.53 3.50245H428.529L426.044 3.68787L426.024 3.6889L422.715 3.96651H422.705L420.388 4.17368H420.377L416.974 4.49271L416.959 4.49478L414.83 4.7092L414.814 4.71127L411.196 5.10282H411.19L409.248 5.31931L409.237 5.32035L405.459 5.76161L405.43 5.76472L403.711 5.9895L403.7 5.99053C402.373 6.15627 401.064 6.322 399.759 6.50534L399.744 6.50742L398.212 6.71251L398.196 6.71458L394.046 7.3019L394.038 7.30294L392.778 7.48732L392.766 7.48836L388.34 8.15854L388.324 8.16165L387.362 8.31392C385.813 8.56148 384.264 8.81941 382.714 9.08769L382.7 9.08976L382.098 9.19024L382.077 9.19334L377.1 10.0717L376.914 10.1038H376.743C330.463 18.5615 285.855 33.5904 244.478 54.6635L244.404 54.7049L244.366 54.7267L244.327 54.7474C241.219 56.3215 238.133 57.9341 235.067 59.5848L234.839 59.7111L234.825 59.7194L234.811 59.7267C231.778 61.3355 228.773 62.9955 225.799 64.7059L225.79 64.7111L225.596 64.8251L225.584 64.8323L225.571 64.8396C220.58 67.6826 215.638 70.6093 210.748 73.6183L209.342 74.4915L209.332 74.4977C207.722 75.5255 206.114 76.5582 204.51 77.5959L204.497 77.6032L203.445 78.2744C201.486 79.5302 199.538 80.8022 197.601 82.0904L197.597 82.0925L197.042 82.4674L197.034 82.4726L197.025 82.4778C195.266 83.6436 193.518 84.8255 191.782 86.0235L191.781 86.0245L190.756 86.7289L190.749 86.7341C186.826 89.4122 182.954 92.1632 179.136 94.9855L178.812 95.2238H178.811C176.906 96.6324 175.011 98.0529 173.124 99.4852L173.059 99.5391L173.027 99.566L172.995 99.5909C69.2221 178.772 3.04944 299.003 2.96094 433.647V861.816C2.97358 866.892 4.5887 871.862 7.61877 876.107C10.6509 880.354 14.9695 883.692 20.0488 885.688L20.0541 885.69C21.1008 886.104 22.1721 886.456 23.2622 886.742C23.4908 886.802 23.7184 886.859 23.9491 886.913L23.9575 886.915L23.966 886.917C26.2641 887.471 28.6218 887.751 30.988 887.749H185.066C188.745 887.76 192.393 887.092 195.821 885.78C199.195 884.493 202.283 882.578 204.918 880.14C207.489 877.761 209.548 874.899 210.971 871.722C212.366 868.601 213.087 865.23 213.089 861.821V777.654C213.089 776.817 213.139 776.016 213.208 775.232L213.263 775.234C213.276 775.08 213.279 774.88 213.279 774.584V774.464L213.293 774.344C214.101 767.557 217.347 761.244 222.478 756.425C227.605 751.606 234.316 748.561 241.51 747.761Z" stroke="url(#paint0_linear_7044_98504)" stroke-width="4.21428"/>
<defs>
<linearGradient id="paint0_linear_7044_98504" x1="158.678" y1="16.5488" x2="1008.01" y2="881.486" gradientUnits="userSpaceOnUse">
<stop stop-color="#FFD781" stop-opacity="0.25"/>
<stop offset="0.135" stop-color="#E7BB56"/>
<stop offset="0.797" stop-color="#9875D4"/>
<stop offset="1" stop-color="#D0C1E8" stop-opacity="0.25"/>
</linearGradient>
</defs>
</svg>
