<svg width="32" height="29" viewBox="0 0 32 29" fill="none" xmlns="http://www.w3.org/2000/svg">
<g clip-path="url(#clip0_1_10620)">
<mask id="mask0_1_10620" style="mask-type:luminance" maskUnits="userSpaceOnUse" x="0" y="0" width="32" height="29">
<path d="M31.0312 0.71875H0.03125V28.2743H31.0312V0.71875Z" fill="white"/>
</mask>
<g mask="url(#mask0_1_10620)">
<path d="M21.559 0.71875H9.50347C8.07726 0.71875 6.91476 1.89201 6.96858 3.31285C6.97934 3.59809 6.9901 3.88334 7.00625 4.1632H1.32291C0.607118 4.1632 0.03125 4.73906 0.03125 5.45486C0.03125 10.4385 1.8342 13.9045 4.25608 16.2564C6.64028 18.576 9.54653 19.7439 11.6885 20.3359C12.9479 20.6858 13.809 21.7352 13.809 22.7901C13.809 23.9149 12.8941 24.8299 11.7693 24.8299H10.3646C9.41198 24.8299 8.64236 25.5994 8.64236 26.5521C8.64236 27.5047 9.41198 28.2743 10.3646 28.2743H20.6979C21.6506 28.2743 22.4201 27.5047 22.4201 26.5521C22.4201 25.5994 21.6506 24.8299 20.6979 24.8299H19.2932C18.1684 24.8299 17.2535 23.9149 17.2535 22.7901C17.2535 21.7352 18.1092 20.6804 19.374 20.3359C21.5213 19.7439 24.4276 18.576 26.8118 16.2564C29.2283 13.9045 31.0312 10.4385 31.0312 5.45486C31.0312 4.73906 30.4554 4.1632 29.7396 4.1632H24.0562C24.0724 3.88334 24.0832 3.60347 24.0939 3.31285C24.1477 1.89201 22.9852 0.71875 21.559 0.71875ZM2.66302 6.74653H7.20539C7.69514 11.5957 8.77691 14.8356 9.99862 17.0045C8.65851 16.4125 7.26459 15.5783 6.05903 14.4051C4.3368 12.7312 2.9375 10.3148 2.6684 6.74653H2.66302ZM25.0088 14.4051C23.8033 15.5783 22.4094 16.4125 21.0693 17.0045C22.291 14.8356 23.3727 11.5957 23.8625 6.74653H28.4049C28.1304 10.3148 26.7311 12.7312 25.0142 14.4051H25.0088Z" fill="#B1EEF0"/>
</g>
</g>
<defs>
<clipPath id="clip0_1_10620">
<rect width="31" height="28.0938" fill="white" transform="translate(0.03125 0.71875)"/>
</clipPath>
</defs>
</svg>
