<svg width="163" height="53" viewBox="0 0 163 53" fill="none" xmlns="http://www.w3.org/2000/svg">
<g clip-path="url(#clip0_7044_98536)">
<g clip-path="url(#clip1_7044_98536)">
<path d="M15.1399 3.11975H0.960938V40.485H15.1399C20.863 40.485 25.7273 38.714 29.2061 35.3654C32.691 32.0131 34.5314 27.3223 34.5314 21.8024C34.5314 16.2825 32.691 11.5929 29.2061 8.23811C25.7273 4.88949 20.863 3.11975 15.1399 3.11975ZM8.91857 10.6052H15.0618C22.1618 10.6052 26.233 14.6862 26.233 21.8024C26.233 28.8132 22.0565 32.9996 15.0618 32.9996H8.91857V10.6052Z" fill="#ED1B2F"/>
<path d="M41.9001 1.703C39.2789 1.703 37.2266 3.77885 37.2266 6.42974C37.2266 9.05088 39.2789 11.1032 41.9001 11.1032C44.5361 11.1032 46.6008 9.05088 46.6008 6.42974C46.6008 3.77885 44.5361 1.703 41.9001 1.703Z" fill="#ED1B2F"/>
<path d="M38.1953 40.4864H45.6808V14.4274H38.1953V40.4864Z" fill="#ED1B2F"/>
<path d="M69.0713 16.7325C67.1875 14.7731 64.5961 13.7445 61.5201 13.7445C58.3388 13.7445 55.3545 15.0445 53.1176 17.4054C50.7852 19.8642 49.5 23.2897 49.5 27.0498C49.5 30.7974 50.7852 34.2142 53.1176 36.6705C55.3558 39.029 58.34 40.3278 61.5201 40.3278C64.6246 40.3278 67.1441 39.3475 69.0192 37.4117V38.356C69.0192 42.3776 66.4315 44.7781 62.0964 44.7781C59.2026 44.7781 56.4365 43.9218 53.8785 42.2338L53.5625 42.0256L50.8658 48.1986L51.0789 48.3486C53.8513 50.3079 58.0786 51.4766 62.3864 51.4766C71.0467 51.4766 76.4253 46.3384 76.4253 38.0673V14.4261H69.0713V16.7325ZM63.2514 33.3926C59.7281 33.3926 57.1701 30.7256 57.1701 27.0498C57.1701 23.3579 59.7281 20.6785 63.2514 20.6785C66.8169 20.6785 69.3067 23.2984 69.3067 27.0498C69.3067 30.7256 66.7612 33.3926 63.2514 33.3926Z" fill="#ED1B2F"/>
<path d="M85.3622 1.70349C82.7411 1.70349 80.6875 3.77934 80.6875 6.43023C80.6875 9.05138 82.7411 11.1037 85.3622 11.1037C87.9982 11.1037 90.0629 9.05138 90.0629 6.43023C90.0629 3.77934 87.9982 1.70349 85.3622 1.70349Z" fill="#ED1B2F"/>
<path d="M81.6562 40.4864H89.1418V14.4274H81.6562V40.4864Z" fill="#ED1B2F"/>
<path d="M112.056 31.6605C110.577 33.2741 108.744 34.128 106.756 34.128C103.262 34.128 100.727 31.3172 100.727 27.4431C100.727 23.5691 103.273 20.7571 106.782 20.7571C108.793 20.7571 110.397 21.5118 111.98 23.201L112.185 23.4216L117.584 18.9142L117.399 18.6713C114.981 15.4937 111.277 13.7438 106.965 13.7438C98.8065 13.7438 93.1094 19.3777 93.1094 27.4431C93.1094 35.5086 98.8065 41.1413 106.965 41.1413C111.253 41.1413 114.966 39.4013 117.423 36.2435L117.611 36.0031L112.265 31.4337L112.056 31.6605Z" fill="#ED1B2F"/>
<path d="M162.038 40.1652C162.038 40.1652 160.328 40.4849 158.05 40.4849C150.989 40.4849 148.641 36.8513 148.641 30.6262V4.43335H156.083V29.8516C156.083 32.7157 156.91 33.7071 159.261 33.8943C160.661 34.0058 162.038 33.7864 162.038 33.7864V40.1652Z" fill="#ED1B2F"/>
<path d="M139.327 32.3813C137.581 33.8202 135.294 34.679 133.19 34.679C129.96 34.679 127.796 33.0369 127.055 30.044H144.958L144.996 29.7676C145.076 29.1789 145.131 28.2333 145.131 27.4166V27.4154C145.117 23.4446 143.898 20.034 141.602 17.5529C139.3 15.0619 136.136 13.7445 132.455 13.7445C128.628 13.7445 125.34 15.0681 122.945 17.5715C120.548 20.0749 119.281 23.5165 119.281 27.5207C119.281 31.5163 120.585 34.9318 123.051 37.3981C125.499 39.8469 128.87 41.1408 132.796 41.1408C136.431 41.1408 139.581 40.3005 142.133 38.5494C143.171 37.8355 143.993 36.9358 144.272 36.6074L139.327 32.3813ZM132.403 20.2856C135.053 20.2856 136.866 21.862 137.542 24.736H127.078C127.573 22.6217 128.911 20.2856 132.403 20.2856Z" fill="#ED1B2F"/>
</g>
</g>
<defs>
<clipPath id="clip0_7044_98536">
<rect width="162" height="52" fill="white" transform="translate(0.5 0.589966)"/>
</clipPath>
<clipPath id="clip1_7044_98536">
<rect width="162" height="52" fill="white" transform="translate(0.5 0.589966)"/>
</clipPath>
</defs>
</svg>
