<svg width="17" height="16" viewBox="0 0 17 16" fill="none" xmlns="http://www.w3.org/2000/svg">
<g clip-path="url(#clip0_7044_98385)">
<mask id="mask0_7044_98385" style="mask-type:luminance" maskUnits="userSpaceOnUse" x="0" y="0" width="17" height="16">
<path d="M0 0H17V16H0V0Z" fill="white"/>
</mask>
<g mask="url(#mask0_7044_98385)">
<path d="M2.70479 3.94002C2.95036 3.93871 3.19327 3.88904 3.41965 3.79385C3.64603 3.69866 3.85144 3.55982 4.02416 3.38524C4.19687 3.21067 4.33352 3.00378 4.42628 2.7764C4.51904 2.54902 4.56611 2.30559 4.56479 2.06002C4.56624 1.81428 4.51923 1.57066 4.42647 1.3431C4.3337 1.11553 4.197 0.908485 4.02416 0.733791C3.85132 0.559097 3.64575 0.420183 3.41919 0.32499C3.19263 0.229798 2.94953 0.180195 2.70379 0.179016C2.45822 0.180326 2.21531 0.229993 1.98893 0.325181C1.76255 0.420369 1.55714 0.559215 1.38442 0.73379C1.2117 0.908365 1.07506 1.11525 0.9823 1.34263C0.889538 1.57002 0.842472 1.81344 0.843789 2.05902C0.842208 2.30476 0.88908 2.5484 0.981723 2.77601C1.07437 3.00363 1.21097 3.21075 1.38371 3.38554C1.55645 3.56032 1.76195 3.69935 1.98846 3.79466C2.21497 3.88997 2.45805 3.93971 2.70379 3.94102L2.70479 3.94002ZM6.32079 5.36702V15.804H9.52279V10.643C9.52279 9.28102 9.77679 7.96302 11.4458 7.96302C13.0918 7.96302 13.1128 9.51902 13.1128 10.729V15.805H16.3178V10.08C16.3178 7.26902 15.7198 5.10802 12.4708 5.10802C10.9108 5.10802 9.86579 5.97402 9.43779 6.79402H9.39479V5.36702H6.32079ZM1.10079 5.36702H4.30879V15.804H1.09979V5.36702H1.10079Z" fill="white"/>
</g>
</g>
<defs>
<clipPath id="clip0_7044_98385">
<rect width="17" height="16" fill="white"/>
</clipPath>
</defs>
</svg>
