<svg width="144" height="48" viewBox="0 0 144 48" fill="none" xmlns="http://www.w3.org/2000/svg">
<g clip-path="url(#clip0_7044_98379)">
<path fill-rule="evenodd" clip-rule="evenodd" d="M139.79 28.048V27.368H132.361C128.411 27.368 125.833 29.245 125.833 32.32C125.833 35.032 127.99 36.752 131.359 36.752C136.682 36.752 139.79 33.452 139.79 28.048ZM144.002 22.936V39.882H139.79V35.344C138.367 38.368 134.838 40.295 130.727 40.295C125.147 40.295 121.513 37.174 121.513 32.375C121.513 27.369 125.673 24.181 132.1 24.181H138.102C139.272 24.181 139.79 23.607 139.79 22.772C139.79 19.175 137.209 16.725 132.677 16.725C128.778 16.725 125.728 19.125 125.518 21.992H121.513C121.988 16.92 126.832 13.182 132.783 13.182C139.685 13.19 144.002 17.095 144.002 22.936ZM111.724 26.741C111.724 20.798 108.246 16.943 102.927 16.943C97.6073 16.943 94.0783 20.798 94.0783 26.74C94.0783 32.683 97.5883 36.545 102.927 36.545C108.265 36.545 111.724 32.672 111.724 26.741ZM89.7623 26.741C89.7623 19.078 94.2893 13.19 102.556 13.19C106.3 13.19 109.775 15.067 111.354 17.872V0H115.569V39.882H111.354V35.554C109.794 38.422 106.284 40.295 102.556 40.295C94.2893 40.295 89.7623 34.404 89.7623 26.741ZM80.2193 28.048V27.368H72.8093C68.8593 27.368 66.2783 29.245 66.2783 32.32C66.2783 35.032 68.4383 36.752 71.8123 36.752C77.0993 36.752 80.2193 33.452 80.2193 28.048ZM84.4353 22.936V39.882H80.2193V35.344C78.7993 38.368 75.2713 40.295 71.1603 40.295C65.5803 40.295 61.9453 37.174 61.9453 32.375C61.9453 27.369 66.1063 24.181 72.5293 24.181H78.5343C79.7043 24.181 80.2193 23.607 80.2193 22.772C80.2193 19.175 77.6413 16.725 73.1103 16.725C69.2103 16.725 66.1573 19.125 65.9463 21.992H61.9463C62.4173 16.92 67.2653 13.182 73.2163 13.182C80.1143 13.19 84.4353 17.095 84.4353 22.936Z" fill="white"/>
<path d="M12.095 40.45C11.7559 40.4904 11.4404 40.6445 11.2 40.887C10.9596 41.1296 10.8084 41.4465 10.771 41.786C10.771 41.808 10.771 41.831 10.767 41.853V41.831C10.764 41.871 10.762 41.911 10.762 41.951V46.491C10.7619 46.6894 10.7226 46.8859 10.6465 47.0692C10.5704 47.2525 10.4588 47.419 10.3183 47.5591C10.1778 47.6993 10.011 47.8104 9.82754 47.886C9.64406 47.9616 9.44746 48.0004 9.249 48H1.513C1.31092 48 1.11092 47.9592 0.925 47.88C0.651604 47.7647 0.418149 47.5715 0.253681 47.3245C0.0892137 47.0776 0.000994565 46.7877 0 46.491L0 23.4C0.005 16.103 3.344 9.58798 8.578 5.29898L8.583 5.29398L8.871 5.06198L8.888 5.04898C9.081 4.89598 9.276 4.74698 9.474 4.60198L9.525 4.56398C9.613 4.49898 9.701 4.43498 9.79 4.37198L9.819 4.35098C9.916 4.28098 10.015 4.21198 10.114 4.14398L10.167 4.10798L10.41 3.93998L10.482 3.89198C10.728 3.72898 10.977 3.57098 11.23 3.41598L11.24 3.40998C11.39 3.31798 11.541 3.22698 11.696 3.13898L11.709 3.13198C11.863 3.04198 12.019 2.95498 12.176 2.86898L12.181 2.86598C14.2712 1.72256 16.5249 0.907683 18.863 0.449982H18.872L19.122 0.401982L19.154 0.396982C19.232 0.381982 19.311 0.367982 19.389 0.354982L19.438 0.345982L19.662 0.309982L19.726 0.299982L19.936 0.267982L20.013 0.256982C20.08 0.246982 20.146 0.236982 20.213 0.228982L20.3 0.216982L20.492 0.191982L20.59 0.180982L20.773 0.158982L20.882 0.147982L21.054 0.129982L21.171 0.119982L21.339 0.103982L21.465 0.0939819L21.626 0.0809819L21.76 0.0709819L21.915 0.0609819L22.058 0.0529819L22.206 0.0449819C22.256 0.0429819 22.307 0.0399819 22.358 0.0389819L22.498 0.0329819L22.665 0.0269819L22.791 0.0239819L22.982 0.0189819H23.381C36.298 0.0189819 46.756 10.488 46.761 23.406V46.49C46.7605 46.8905 46.6011 47.2744 46.3178 47.5575C46.0345 47.8406 45.6505 47.9997 45.25 48H37.514C37.1131 48.0002 36.7284 47.8414 36.4446 47.5582C36.1607 47.2751 36.0008 46.8909 36 46.49V41.95C35.9992 41.5494 35.8396 41.1655 35.5561 40.8824C35.2727 40.5994 34.8886 40.4402 34.488 40.44H23.38L12.094 40.45H12.095ZM36 22.438C36 15.468 30.351 9.81898 23.38 9.81898C22.3168 9.81904 21.2578 9.95276 20.228 10.217C18.3431 10.7034 16.5969 11.6208 15.127 12.897C13.7569 14.0805 12.6582 15.5455 11.9058 17.1922C11.1534 18.8389 10.7649 20.6285 10.767 22.439C10.767 29.409 16.413 35.057 23.38 35.057C30.351 35.057 36 29.409 36 22.438Z" fill="white"/>
</g>
<defs>
<clipPath id="clip0_7044_98379">
<rect width="144" height="48" fill="white"/>
</clipPath>
</defs>
</svg>
