<svg width="163" height="47" viewBox="0 0 163 47" fill="none" xmlns="http://www.w3.org/2000/svg">
<g clip-path="url(#clip0_7044_98551)">
<g clip-path="url(#clip1_7044_98551)">
<mask id="mask0_7044_98551" style="mask-type:luminance" maskUnits="userSpaceOnUse" x="0" y="0" width="163" height="47">
<path d="M162.5 0.319946H0.5V46.3199H162.5V0.319946Z" fill="white"/>
</mask>
<g mask="url(#mask0_7044_98551)">
<path d="M2.78108 12.1791H6.80426C8.01121 12.1791 9.08408 13.1178 9.08408 14.3248V17.4092C12.1685 13.7884 15.7894 12.045 19.9466 12.045C22.2264 12.045 24.104 12.4473 25.8473 13.3861C27.4566 14.3248 28.7977 15.6659 29.8705 17.4092C31.3457 15.6659 33.089 14.3248 34.8324 13.3861C36.5758 12.4473 38.4533 12.045 40.599 12.045C43.147 12.045 45.2927 12.5814 47.1701 13.5201C48.9135 14.4589 50.2546 15.9341 51.1933 17.9457C51.8639 19.4208 52.1321 21.7006 52.1321 24.9191V44.4986C52.1321 45.5715 51.1933 46.242 50.1205 46.242H44.7562C43.6834 46.242 42.7447 45.5715 42.7447 44.4986V27.199C42.7447 23.8463 42.4764 21.7006 41.8059 20.7619C41.0013 19.5549 39.6603 18.8844 37.9169 18.8844C36.5758 18.8844 35.3688 19.2867 34.296 19.9572C33.089 20.7619 32.2844 21.8347 31.8821 23.3099C31.3457 24.7851 31.0774 27.0648 31.0774 30.2834V44.4986C31.0774 45.5715 30.1387 46.242 29.0658 46.242H23.7016C22.6288 46.242 21.69 45.5715 21.69 44.4986V28.0036C21.69 24.7851 21.556 22.6393 21.1536 21.7006C20.8854 20.7619 20.3489 20.0913 19.6784 19.5549C19.0079 19.1526 18.0692 18.8844 16.8622 18.8844C15.3871 18.8844 14.1801 19.2867 12.9731 19.9572C11.7662 20.7619 10.9615 21.7006 10.5592 23.1758C10.0228 24.5168 9.75461 26.9308 9.75461 30.1493V44.6327C9.75461 45.7056 8.81587 46.3761 7.74302 46.3761H2.37878C1.30593 46.3761 0.367188 45.5715 0.367188 44.6327V14.4589C0.501293 13.2519 1.57413 12.1791 2.78108 12.1791Z" fill="white"/>
<path d="M98.1328 44.4987V2.38948C98.1328 1.18252 99.2057 0.243774 100.413 0.243774H105.106C106.313 0.243774 107.386 1.18252 107.386 2.38948V24.7851L118.248 12.9838C118.651 12.4474 119.321 12.1792 119.992 12.1792H128.038C128.843 12.1792 129.379 13.1179 128.709 13.7884L117.578 25.1874L128.709 43.694C129.513 44.901 128.574 46.3762 126.965 46.3762H121.601C120.93 46.3762 120.26 46.108 119.858 45.5716L111.677 31.4904L107.386 35.7818V44.6328C107.386 45.7057 106.447 46.3762 105.374 46.3762H100.01C99.0716 46.2421 98.1328 45.5715 98.1328 44.4987Z" fill="white"/>
<path d="M153.247 29.6126C152.04 30.0149 150.163 30.4172 147.615 30.9536C145.067 31.49 143.323 32.0265 142.519 32.5629C141.312 33.3675 140.641 34.4404 140.641 35.6473C140.641 36.8543 141.177 37.9272 142.116 38.8659C143.055 39.8046 144.262 40.207 145.871 40.207C147.48 40.207 149.09 39.6705 150.699 38.5977C151.772 37.793 152.576 36.8543 152.845 35.6473C153.113 34.8427 153.247 33.5017 153.247 31.356V29.6126ZM160.489 46.2417H156.734C155.929 46.2417 155.124 45.0347 154.856 44.3642C154.722 43.9619 154.588 43.5596 154.454 43.0232C154.32 42.4867 154.186 42.0844 154.186 41.9503C152.576 43.4255 150.967 44.4983 149.09 45.303C147.346 45.9735 145.335 46.2417 143.323 46.2417C139.702 46.2417 136.886 45.4371 134.74 43.5596C132.595 41.6821 131.656 39.2682 131.656 36.452C131.656 34.5745 132.192 32.8311 133.131 31.356C134.07 29.8808 135.411 28.6738 137.154 28.0033C138.898 27.1987 141.312 26.5281 144.53 25.9917C148.821 25.1871 151.906 24.5166 153.515 23.846V22.9073C153.515 21.1639 153.113 19.957 152.174 19.2864C151.235 18.6159 149.626 18.2136 147.212 18.2136C145.603 18.2136 144.262 18.4818 143.323 19.1523C142.787 19.5546 142.25 20.091 141.714 20.8957C141.177 21.7003 140.239 22.2368 139.3 22.1027L135.411 21.4321C133.936 21.1639 133.131 19.6887 133.802 18.3477C134.74 16.4702 136.081 15.6656 137.691 14.4586C139.97 12.8493 143.457 12.1788 148.017 12.1788C152.174 12.1788 155.259 12.5811 157.27 13.5198C159.282 14.4586 160.757 15.6656 161.561 17.1407C162.366 18.6159 162.768 20.4934 162.768 24.3824L162.634 34.7086L162.768 44.4983C162.5 45.4371 161.562 46.2417 160.489 46.2417Z" fill="white"/>
<path d="M89.9517 33.2338C89.147 32.5633 88.0742 32.2951 87.0013 32.5633C85.9285 32.6974 84.9897 33.2339 84.3192 34.1726C82.4417 36.7206 79.0891 38.3298 75.2 38.3298C71.0427 38.464 67.2877 36.7206 65.2761 34.0385C64.6056 33.2338 63.6669 32.6974 62.594 32.5633C61.5212 32.4292 60.4483 32.6974 59.6437 33.3679C57.9003 34.709 57.6321 37.257 58.9731 38.8663C62.4599 43.4259 68.4947 46.2421 75.0659 46.2421H75.3341C81.7712 46.108 87.4036 43.4259 90.7563 38.7322C92.0973 36.9888 91.695 34.5749 89.9517 33.2338Z" fill="#001DF5"/>
<path d="M74.7971 24.785C69.9693 24.785 66.0802 21.03 66.0802 16.4704C66.0802 11.9108 69.9693 8.15586 74.7971 8.15586C79.6249 8.15586 83.514 11.9108 83.514 16.4704C83.514 21.03 79.6249 24.785 74.7971 24.785ZM74.7971 0.109497C65.4097 0.109497 57.7656 7.48534 57.7656 16.3363C57.7656 25.1873 65.4097 32.5631 74.7971 32.5631C84.1845 32.5631 91.8285 25.1873 91.8285 16.3363C91.8285 7.48534 84.1845 0.109497 74.7971 0.109497Z" fill="white"/>
</g>
</g>
</g>
<defs>
<clipPath id="clip0_7044_98551">
<rect width="162" height="46" fill="white" transform="translate(0.5 0.319946)"/>
</clipPath>
<clipPath id="clip1_7044_98551">
<rect width="162" height="46" fill="white" transform="translate(0.5 0.319946)"/>
</clipPath>
</defs>
</svg>
