<svg width="17" height="16" viewBox="0 0 17 16" fill="none" xmlns="http://www.w3.org/2000/svg">
<path d="M14.7267 4.74C14.7367 4.89999 14.7367 5.057 14.7367 5.216C14.7367 10.063 11.5468 15.649 5.71375 15.649C3.98475 15.653 2.29275 15.081 0.84375 14.002C1.09775 14.037 1.34375 14.048 1.60875 14.048C3.03875 14.051 4.42775 13.498 5.54675 12.481C4.8697 12.4612 4.22075 12.2059 3.71175 11.759C3.16367 11.277 2.7702 10.6438 2.58075 9.939C3.05775 10.035 3.54775 10.011 4.01575 9.869C3.29575 9.701 2.64875 9.251 2.18775 8.597C1.71546 7.91417 1.46541 7.10222 1.47175 6.272V6.226C1.89475 6.498 2.38575 6.669 2.90475 6.692C2.45688 6.34156 2.10041 5.888 1.86575 5.37C1.61672 4.82666 1.48876 4.23568 1.49075 3.638C1.49075 2.958 1.64775 2.333 1.92275 1.788C2.68932 2.89342 3.68401 3.82162 4.83975 4.51C5.94207 5.16335 7.18382 5.5455 8.46275 5.625C8.41178 5.34786 8.38534 5.06677 8.38375 4.785C8.38375 3.815 8.71775 2.883 9.31275 2.191C9.59743 1.8595 9.94738 1.59023 10.3407 1.4C10.7199 1.2175 11.135 1.12184 11.5557 1.12C12.4687 1.12 13.2927 1.562 13.8727 2.278C14.5939 2.11415 15.277 1.81337 15.8847 1.392C15.6497 2.237 15.1547 2.95499 14.4907 3.41199C15.127 3.32723 15.7444 3.13553 16.3167 2.845C15.8954 3.56096 15.3581 4.20201 14.7267 4.742V4.74Z" fill="white"/>
</svg>
